<?xml version="1.0" encoding="UTF-8" standalone="no"?>
<!-- Created with Inkscape (http://www.inkscape.org/) -->

<svg
   width="120.69788mm"
   height="148.20409mm"
   viewBox="0 0 120.69788 148.20409"
   version="1.1"
   id="svg5"
   xml:space="preserve"
   inkscape:version="1.2.2 (b0a8486541, 2022-12-01)"
   sodipodi:docname="logo.svg"
   inkscape:export-filename="../../Downloads/graphalg_logo.png"
   inkscape:export-xdpi="300"
   inkscape:export-ydpi="300"
   xmlns:inkscape="http://www.inkscape.org/namespaces/inkscape"
   xmlns:sodipodi="http://sodipodi.sourceforge.net/DTD/sodipodi-0.dtd"
   xmlns="http://www.w3.org/2000/svg"
   xmlns:svg="http://www.w3.org/2000/svg"><sodipodi:namedview
     id="namedview7"
     pagecolor="#ffffff"
     bordercolor="#000000"
     borderopacity="0.25"
     inkscape:showpageshadow="2"
     inkscape:pageopacity="0.0"
     inkscape:pagecheckerboard="false"
     inkscape:deskcolor="#d1d1d1"
     inkscape:document-units="mm"
     showgrid="false"
     inkscape:zoom="0.84096521"
     inkscape:cx="72.5357"
     inkscape:cy="239.60563"
     inkscape:window-width="1854"
     inkscape:window-height="1131"
     inkscape:window-x="0"
     inkscape:window-y="0"
     inkscape:window-maximized="1"
     inkscape:current-layer="layer2"
     showborder="true" /><defs
     id="defs2" /><g
     inkscape:groupmode="layer"
     id="layer2"
     inkscape:label="graphalg"
     style="display:inline"
     transform="translate(-0.22244688,-0.39879743)"><path
       style="display:inline;fill:#afe9c6;stroke:#333333;stroke-width:1.5;stroke-dasharray:none"
       d="M 37.748466,147.85149 C 22.311547,120.83629 0.66122598,75.000722 0.97590898,55.470377 1.685538,36.521448 20.338558,1.3121392 60.872202,1.1488422 104.46226,2.4407912 120.38989,40.960622 120.16801,59.0012 120.3673,79.953112 99.773032,120.80664 85.396802,147.69941 Z"
       id="path400"
       sodipodi:nodetypes="cccccc"
       inkscape:label="outline" /><path
       style="fill:none;stroke:#808080;stroke-width:0.5;stroke-dasharray:none"
       d="M 66.102832,2.6053202 C 98.483162,29.792821 83.335912,89.632192 71.097082,147.47346"
       id="path499"
       sodipodi:nodetypes="cc"
       inkscape:label="vert_ri" /><path
       style="fill:none;stroke:#808080;stroke-width:0.5;stroke-dasharray:none"
       d="M 55.953906,2.6053202 C 23.573717,29.792821 38.720925,89.632192 50.959683,147.47346"
       id="path501"
       sodipodi:nodetypes="cc"
       inkscape:label="vert_li" /><path
       style="fill:none;stroke:#808080;stroke-width:0.5;stroke-dasharray:none"
       d="M 78.373872,5.3236132 C 136.76206,39.84878 101.47724,98.181222 81.680482,147.47346"
       id="path1180"
       sodipodi:nodetypes="cc"
       inkscape:label="vert_ro" /><path
       style="fill:none;stroke:#808080;stroke-width:0.5;stroke-dasharray:none"
       d="M 43.393778,5.3236132 C -14.99423,39.84878 20.29059,98.181222 40.087206,147.47346"
       id="path1182"
       sodipodi:nodetypes="cc"
       inkscape:label="vert_lo" /><path
       style="display:inline;fill:#4d4d4d;stroke:#808080;stroke-width:0.499999;stroke-dasharray:none"
       d="M 29.305891,130.78451 H 92.898899"
       id="path1364"
       inkscape:label="hori_5"
       sodipodi:nodetypes="cc" /><path
       style="display:inline;fill:#4d4d4d;stroke:#808080;stroke-width:0.499999;stroke-dasharray:none"
       d="M 17.782892,105.91368 H 103.9504"
       id="path1360"
       inkscape:label="hori_4"
       sodipodi:nodetypes="cc" /><path
       style="display:inline;fill:#4d4d4d;stroke:#808080;stroke-width:0.499999;stroke-dasharray:none"
       d="M 7.868103,80.685832 H 114.14048"
       id="path1358"
       inkscape:label="hori_3"
       sodipodi:nodetypes="cc" /><path
       style="fill:#4d4d4d;stroke:#808080;stroke-width:0.499999;stroke-dasharray:none"
       d="M 26.830107,13.553225 H 95.124602"
       id="path1354"
       inkscape:label="hori_2" /><path
       style="display:inline;fill:#4d4d4d;stroke:#808080;stroke-width:0.499999;stroke-dasharray:none"
       d="M 6.2699762,38.881666 H 114.14048"
       id="path1356"
       inkscape:label="hori_1"
       sodipodi:nodetypes="cc" /><ellipse
       style="display:inline;fill:none;stroke:#333333;stroke-width:0.5;stroke-dasharray:none"
       id="ellipse5471"
       ry="45.831875"
       rx="46.231499"
       cy="57.299843"
       cx="61.292042"
       inkscape:label="circle_outer" /><path
       id="path9167"
       style="color:#000000;fill:#333333;stroke:none;stroke-width:0.8;stroke-dasharray:none"
       class="UnoptimicedTransforms"
       d="m 169.4403,35.06711 a 5.9281411,5.9281411 0 0 0 -5.86734,5.968111 5.9281411,5.9281411 0 0 0 3.27784,5.258594 l -4.13308,11.051522 a 5.9281411,5.9281411 0 0 0 -1.51051,-0.183451 5.9281411,5.9281411 0 0 0 -3.90208,1.522904 l -9.9286,-7.469311 a 5.1721411,5.1721411 0 0 0 0.5886,-2.389002 l -5.2e-4,-0.07028 a 5.1721411,5.1721411 0 0 0 -5.22449,-5.101497 5.1721411,5.1721411 0 0 0 -5.11906,5.207434 5.1721411,5.1721411 0 0 0 5.18934,5.136637 5.1721411,5.1721411 0 0 0 3.3166,-1.222147 l 9.93789,7.477063 a 5.9281411,5.9281411 0 0 0 -0.72502,2.87631 5.9281411,5.9281411 0 0 0 0.5271,2.394169 l -10.28154,6.31331 a 5.9281411,5.9281411 0 0 0 -4.64106,-2.165243 5.9281411,5.9281411 0 0 0 -5.86734,5.968111 5.9281411,5.9281411 0 0 0 5.94795,5.887496 5.9281411,5.9281411 0 0 0 5.90817,-5.927803 l -5.2e-4,-0.08113 a 5.9281411,5.9281411 0 0 0 -0.35966,-1.942001 l 10.41021,-6.393408 a 5.9281411,5.9281411 0 0 0 4.30465,1.833997 5.9281411,5.9281411 0 0 0 2.52853,-0.575676 l 5.3759,8.328691 a 5.9281411,5.9281411 0 0 0 -1.95647,4.436938 5.9281411,5.9281411 0 0 0 5.94847,5.887496 5.9281411,5.9281411 0 0 0 5.90765,-5.92832 l -5.2e-4,-0.08062 a 5.9281411,5.9281411 0 0 0 -5.98826,-5.847189 5.9281411,5.9281411 0 0 0 -2.22105,0.459404 l -5.42861,-8.411373 a 5.9281411,5.9281411 0 0 0 1.4149,-2.253092 l 7.01921,1.13378 a 4.5175614,4.5175614 0 0 0 4.52375,4.277259 4.5175614,4.5175614 0 0 0 4.50205,-4.517554 l -5.1e-4,-0.0615 a 4.5175614,4.5175614 0 0 0 -4.56355,-4.456059 4.5175614,4.5175614 0 0 0 -4.12326,2.786394 l -7.03006,-1.135332 -5.2e-4,-0.05219 a 5.9281411,5.9281411 0 0 0 -2.64428,-4.855001 l 4.21938,-11.279415 a 5.9281411,5.9281411 0 0 0 0.75034,0.04858 5.9281411,5.9281411 0 0 0 5.90817,-5.927803 l -5.2e-4,-0.08113 A 5.9281411,5.9281411 0 0 0 169.4403,35.06711 Z"
       inkscape:label="graph"
       transform="matrix(1.2251711,0,0,1.2251711,-134.92116,-20.694037)" /><ellipse
       style="display:inline;fill:none;stroke:#333333;stroke-width:0.451858;stroke-dasharray:none"
       id="ellipse9394"
       ry="41.418976"
       rx="41.780121"
       cy="57.081005"
       cx="61.536102"
       inkscape:label="circle_outer" /></g><g
     inkscape:groupmode="layer"
     id="layer3"
     inkscape:label="graph_parts"
     style="display:none"
     sodipodi:insensitive="true"
     transform="translate(-0.22244688,-0.39879743)"><path
       style="display:inline;fill:none;stroke:#000000;stroke-width:2;stroke-dasharray:none"
       d="m 62.522472,59.579972 8.37213,-22.383334"
       id="path6927" /><path
       style="display:inline;fill:none;stroke:#000000;stroke-width:2;stroke-dasharray:none"
       d="M 62.522472,59.579972 44.243514,45.828608"
       id="path6929"
       sodipodi:nodetypes="cc" /><path
       style="display:inline;fill:none;stroke:#000000;stroke-width:2;stroke-dasharray:none"
       d="m 62.522472,59.579972 -21.153674,12.9901"
       id="path6931"
       sodipodi:nodetypes="cc" /><path
       style="display:inline;fill:none;stroke:#000000;stroke-width:2;stroke-dasharray:none"
       d="m 62.522472,59.579972 11.58403,17.94786"
       id="path6933"
       sodipodi:nodetypes="cc" /><path
       style="display:inline;fill:none;stroke:#000000;stroke-width:2;stroke-dasharray:none"
       d="m 62.522472,59.579972 18.33197,2.95988"
       id="path6935"
       sodipodi:nodetypes="cc" /><path
       style="display:inline;fill:#000000;stroke:none;stroke-width:0.291963;stroke-dasharray:none"
       id="path1565"
       sodipodi:type="arc"
       sodipodi:cx="43.709061"
       sodipodi:cy="45.235065"
       sodipodi:rx="5.1721411"
       sodipodi:ry="5.1721411"
       sodipodi:start="0"
       sodipodi:end="6.2695324"
       sodipodi:open="true"
       sodipodi:arc-type="arc"
       d="m 48.881202,45.235065 a 5.1721411,5.1721411 0 0 1 -5.154488,5.172111 5.1721411,5.1721411 0 0 1 -5.189674,-5.136803 5.1721411,5.1721411 0 0 1 5.119061,-5.207177 5.1721411,5.1721411 0 0 1 5.224619,5.101257" /><path
       style="display:inline;fill:#000000;stroke:none;stroke-width:0.334639;stroke-dasharray:none"
       id="path1723"
       sodipodi:type="arc"
       sodipodi:cx="62.183983"
       sodipodi:cy="59.497852"
       sodipodi:rx="5.9281411"
       sodipodi:ry="5.9281411"
       sodipodi:start="0"
       sodipodi:end="6.2695324"
       sodipodi:open="true"
       sodipodi:arc-type="arc"
       d="m 68.112124,59.497852 a 5.9281411,5.9281411 0 0 1 -5.907907,5.928107 5.9281411,5.9281411 0 0 1 -5.948237,-5.887639 5.9281411,5.9281411 0 0 1 5.867302,-5.968298 5.9281411,5.9281411 0 0 1 5.988289,5.846896" /><path
       style="display:inline;fill:#000000;stroke:none;stroke-width:0.334639;stroke-dasharray:none"
       id="path1725"
       sodipodi:type="arc"
       sodipodi:cx="70.417068"
       sodipodi:cy="37.403027"
       sodipodi:rx="5.9281411"
       sodipodi:ry="5.9281411"
       sodipodi:start="0"
       sodipodi:end="6.2695324"
       sodipodi:open="true"
       sodipodi:arc-type="arc"
       d="m 76.34521,37.403027 a 5.9281411,5.9281411 0 0 1 -5.907907,5.928106 5.9281411,5.9281411 0 0 1 -5.948238,-5.887639 5.9281411,5.9281411 0 0 1 5.867302,-5.968298 5.9281411,5.9281411 0 0 1 5.98829,5.846897" /><path
       style="display:inline;fill:#000000;stroke:none;stroke-width:0.334639;stroke-dasharray:none"
       id="path4739"
       sodipodi:type="arc"
       sodipodi:cx="41.921059"
       sodipodi:cy="72.008255"
       sodipodi:rx="5.9281411"
       sodipodi:ry="5.9281411"
       sodipodi:start="0"
       sodipodi:end="6.2695324"
       sodipodi:open="true"
       sodipodi:arc-type="arc"
       d="m 47.8492,72.008255 a 5.9281411,5.9281411 0 0 1 -5.907907,5.928107 5.9281411,5.9281411 0 0 1 -5.948237,-5.887639 5.9281411,5.9281411 0 0 1 5.867301,-5.968298 5.9281411,5.9281411 0 0 1 5.98829,5.846896" /><path
       style="display:inline;fill:#000000;stroke:none;stroke-width:0.255013;stroke-dasharray:none"
       id="path5467"
       sodipodi:type="arc"
       sodipodi:cx="79.311913"
       sodipodi:cy="62.335575"
       sodipodi:rx="4.5175614"
       sodipodi:ry="4.5175614"
       sodipodi:start="0"
       sodipodi:end="6.2695324"
       sodipodi:open="true"
       sodipodi:arc-type="arc"
       d="m 83.829474,62.335575 a 4.5175614,4.5175614 0 0 1 -4.502142,4.517535 4.5175614,4.5175614 0 0 1 -4.532876,-4.486696 4.5175614,4.5175614 0 0 1 4.471199,-4.548163 4.5175614,4.5175614 0 0 1 4.563398,4.455648" /><path
       style="display:inline;fill:#000000;stroke:none;stroke-width:0.334639;stroke-dasharray:none"
       id="path5469"
       sodipodi:type="arc"
       sodipodi:cx="74.079994"
       sodipodi:cy="77.575195"
       sodipodi:rx="5.9281411"
       sodipodi:ry="5.9281411"
       sodipodi:start="0"
       sodipodi:end="6.2695324"
       sodipodi:open="true"
       sodipodi:arc-type="arc"
       d="m 80.008135,77.575195 a 5.9281411,5.9281411 0 0 1 -5.907907,5.928107 5.9281411,5.9281411 0 0 1 -5.948237,-5.887639 5.9281411,5.9281411 0 0 1 5.867302,-5.968298 5.9281411,5.9281411 0 0 1 5.98829,5.846896" /></g></svg>
